<svg viewBox="0 0 350 350" xmlns="http://www.w3.org/2000/svg" style="enable-background:new 0 0 1400 980" width="350" height="350"><path style="fill:#fff;fill-opacity:0;pointer-events:none" d="M0 0h350v350H0z" fill="none"/><path class="st3" d="M456.9 400.3c-1.1-.1-2.2-.9-3-1.7-.1 1.5-1.2 2.6-2.1 2.1-1.1-.6-1.2-1.7.8-3.5.4-1.9 2.6-4.3 5.1-6.6-6.4 5-12.8 9.9-11.2 14 .8-.6 1.8-1.1 2.6-.8 1.1.4 1 1.4.4 2.3-.9.7-1.9 1-2.9 1.1.5 1.7-.2 3.7-1 5.7-1.6.5-3.3 1.4-5.3 2.5 4.2-5.6 6.1-13.9 3.7-20.4-1.4-3.8-4.3-6.4-7.6-8.1-4.2-2.2-9.3-3.1-13.7-3.6-14.4-1.4-19.6-10.8-15.1-17.5 4-5.9 14.8-4.9 22.3 2.6.5.5.7 1 .9 1.6-1-.9-2-1.4-3.2-1.5-2.8-.3-5.2-1.3-6.2-3.9.1 3.1 2.2 4.9 4 6.8-4.4-.7-7.4-2.9-9.8-5.5 3.6 6.5 7.8 8.5 12.4 8.4 2.1 1 4.4 1.9 6.9 2.7.5.7 1 1.2 1.6 1.7.2.2.5.4.7.7.8.9 1 2 2.4 2.7-.5-.9-.9-1.9-1.1-3-.2-1-.5-1.9-1.2-2.9 2.1 1.5 4.2 2.6 6.5 2.8 4.8.5 6.3 1.3 8.3 6.8 1.4-3.7 2.3-9.1-4.3-11.2-2-.7-3.3-3.3-3.8-5.3.9 0 1.9.5 2.9 1.4-.8-3.6-2.5-6.8-6.5-9.2-2.3-2.8-3.6-5.4-3.9-8-.2-1-.2-2.1 0-3.1.1-.6.2-1.1.4-1.7-.1.2-.3.4-.4.6-1.6 2.5-2.6 5.3-2.8 8.5-5.7-4.8-7.2-10.4-4.8-16.8-3 3.2-4.4 7.1-3.8 11.9-1.6-2.8-2-5.6-1.3-8.5-2.4 2.9-2.7 6-2.5 9.4-1.5-2.1-1.9-4.3-1.5-6.5-1.6 2.3-1.9 4.9-1.8 7.5-7.1-2.2-10-6.7-9.2-13.3-3.1 4.9-1.6 9.5 1.8 14-5.5-.2-10-1.4-12.7-4 1.7 3.6 4.3 5.8 7.9 6.8-5.8 3.9-9.3 11-8.2 17.2 1 5.7 6.1 10.4 12.6 12.1 2.9.8 5.4 2 6.2 4.6 1.3 4.1-1.6 5.9-3.4 6.1-2.3.2-3.7-1.9-3.2-3.5.5-1.5 1.9-1.6 2.7-1.1 1 .7 1 1.9-.2 2.3-.7.2-1.4-.5-1.7-1.3-.5 1.4.2 2.2 1.1 2.7 1.4.7 3.8-.8 4-2.4.4-3.3-2.9-6.1-7.7-4.8-1.9.5-3.7.7-5.8.7-3.3-2.4-5-5.3-4.3-8.9-1.8 3-2.2 6.3 0 10-1.2.3-2.7.6-3.8.1-5.8-2.8-3.6-12.8 1.6-15.4-4.4.9-6.9 3.6-8.3 7.3-1.7-9.3 4.9-19.5 14.1-25.8-16.8 3.5-34.2 18.9-36.6 41.4V410c.5 4.5 1.5 9.2 3.2 14.1-3.8-19.4-.6-35.3 10.7-47.2-3.3 5.9-5.1 14.4-.8 25.7-1.9-9.2-.4-17.2 3.4-24.2-1.4 8.4-.9 16.5 8.5 23.1-1.5-1.8-3-3.6-3.3-5.9 3.8 3.5 8.3 4.1 13.6 2.1-1.8 2-3.9 3.3-7.1 4.3 3.3.2 7.1-1.3 10.8-3.3-1 1.8-3.1 3.3-5.6 4.8 1.9-.3 4.7-.9 7.4-2.6 4.6 4.6 10 2.6 15.1-2.3.5 2.8-.1 5.5-2 8.1 3.9-3.1 6.4-6.8 6.1-11.4 2.3 2.2 2.1 4.5.5 6.6 3.1-2 3.9-4.6 3.3-8 1.8 2.1 2.2 3.7 1.3 5.8 1.2-.9 2.2-2 2.6-4.1 1.4 3.5.9 6.5-2.2 9.2.9 0 1.7-.2 2.7-.6-2.7 3.6-7.1 2.6-8.3-.6.3 4.3 3.5 5.8 6.8 7.1-.3.4-.7 1-1.3 1.2-4.7 1.5-8.5-2.3-8.5-5.9-.7 1.7-.8 3.4-.2 5.3-4.3-4.5-11.6-8.6-21.6-6.8-4.5.8-11.3.1-13.5-2.9.2 2.8 1.2 5 2.6 6.8-5 4.3-9.7 6.4-14.2 6.4 2.6 2.2 5.7 2.4 9 1.8-.8 4-3.3 7.2-7.4 9.8 2.4-.2 4.8-1.2 7-2.7-.1 2.2-.9 4.2-2 6.2 1.3-.7 2.4-1.8 3.3-3 2.6 6 7.1 9.4 13.2 10.7 1.1 1 1 2.2.4 3.4 1.9-.9 3.1-2.1 3.6-3.7 4.8-.3 9.2-1.6 13.4-3.3-.2 2 .4 3.6 1.9 4.7.1-4.7 3.7-5.6 6-4.5 3.2 1.6 3.9 6.5-.4 9.1 3.2-.6 5.8-2.1 7-5.3 1.9 5.7-.2 11.2-8.2 14.5-.9.4-3.6.3-3.1-.6 2-3.3 2.5-4.9 2.4-7.4-1.8 2.7-3.9 4.2-6.1 5.2 1.6-3 2-6.1 1.2-9.1-3.6 11-14.9 11.3-24 4 6 10.9 18.3 16.3 26 16.1-2-1.3-3.7-2.9-4.9-4.7 6.2 1.3 11.5.9 15.8-1.5 2.9-1.6 5.4-4.1 7.4-7.6.3-.5.5-.9.8-1.4 2.9.2 5-.6 6.2-2.3-3.4.1-5.7-1.1-6.3-4 3.5-.7 4.8-2.4 4.7-4.7-1.4 2.1-3.5 1.7-5.4 0-.1-.1-.2-.3-.4-.4-5.4-5.4-11.9-8-23.2-5-8.9 2.3-19.3.2-20.4-7.9 2.9 2.2 5.3 2.8 7.6 2.6-4.1-2.8-4.1-6.8-1.3-9.9 1.9-2.1 5.9-3.6 8.5-1 1.9 1.9.9 5-.9 5.8-2 .9-4.7-.1-5.7-3.4.1 5.5 3 8.1 7.1 6.9 2.1-.6 3.8-2.1 5.4-3.7-.2 1.6-1.3 3-2.7 4.3 2.9-.3 4.5-1.6 5.5-3.1 5.8 3.2 11.9 3.5 18.3.6-1.1 2.9-3.4 5.2-6.3 7 3.2-1.1 6.1-2.7 8.5-5.2l.8-.8c-.2.6-.5 1.2-.8 1.7-.9 1.6-2.2 2.9-3.6 4.3 1.2-.6 2.4-1.3 3.6-2 4.1-2.6 7.5-5.8 10.6-9.2-.2 2.3-1.5 4.6-3.4 6.7 3-1.5 4.6-3.4 5.4-5.6 3.9 1.7 6.1-1.3 5.4-3.7-.4.9-1.1 1.5-1.7 1.2-2-.9-3.1-3.8 1.2-5.6.4.5 1.1 1 1.7 1.3 1.2.5 1.4 1.6 1.7 2.6 1.2-3 .8-5.6-1.3-7.7-2.5.2-4.5 1.8-6.4 3.7 3.8-7.5 11-7 11.9-2.7.4-3-.9-5.8-4.6-6zm-21.6-34.2c-.8-.9-1-1.9-1.2-2.8.5.7 1.1 1.2 1.8 1.5.2.1.4.2.5.3 1.5.9 2.4 2.1 3 3.4-.8-.3-1.5-.4-2.2-.4h-.8c-1.1-.1-2.1-.5-3-1.1.3-.5 1.1-.7 1.9-.9z" style="fill-rule:evenodd;clip-rule:evenodd;fill:#53ff24;stroke-opacity:.36;stroke:#000;fill-opacity:.35" transform="scale(-3.733 3.733) rotate(33.631 766.9 -541.092)"/>
</svg>