<?xml version="1.0" encoding="utf-8"?>
<svg width="350px" height="350px" viewBox="0 0 350 350" id="master-artboard" version="1.1" xmlns="http://www.w3.org/2000/svg" x="0px" y="0px" style="enable-background:new 0 0 1400 980;">
	<rect id="ee-background" x="0" y="0" width="350" height="350" style="fill: white; fill-opacity: 0; pointer-events: none;"/><g transform="matrix(-2.6032829284667964, 0, 0, 2.6032829284667964, 1248.0379888706611, -871.5443225516462)"><g transform="matrix(1, 0, 0, 1, 0, 0)">
	<path class="st3" d="M456.9,400.3c-1.1-0.1-2.2-0.9-3-1.7c-0.1,1.5-1.2,2.6-2.1,2.1c-1.1-0.6-1.2-1.7,0.8-3.5&#10;&#9;&#9;c0.4-1.9,2.6-4.3,5.1-6.6c-6.4,5-12.8,9.9-11.2,14c0.8-0.6,1.8-1.1,2.6-0.8c1.1,0.4,1,1.4,0.4,2.3c-0.9,0.7-1.9,1-2.9,1.1&#10;&#9;&#9;c0.5,1.7-0.2,3.7-1,5.7c-1.6,0.5-3.3,1.4-5.3,2.5c4.2-5.6,6.1-13.9,3.7-20.4c-1.4-3.8-4.3-6.4-7.6-8.1c-4.2-2.2-9.3-3.1-13.7-3.6&#10;&#9;&#9;c-14.4-1.4-19.6-10.8-15.1-17.5c4-5.9,14.8-4.9,22.3,2.6c0.5,0.5,0.7,1,0.9,1.6c-1-0.9-2-1.4-3.2-1.5c-2.8-0.3-5.2-1.3-6.2-3.9&#10;&#9;&#9;c0.1,3.1,2.2,4.9,4,6.8c-4.4-0.7-7.4-2.9-9.8-5.5c3.6,6.5,7.8,8.5,12.4,8.4c2.1,1,4.4,1.9,6.9,2.7c0.5,0.7,1,1.2,1.6,1.7&#10;&#9;&#9;c0.2,0.2,0.5,0.4,0.7,0.7c0.8,0.9,1,2,2.4,2.7c-0.5-0.9-0.9-1.9-1.1-3c-0.2-1-0.5-1.9-1.2-2.9c2.1,1.5,4.2,2.6,6.5,2.8&#10;&#9;&#9;c4.8,0.5,6.3,1.3,8.3,6.8c1.4-3.7,2.3-9.1-4.3-11.2c-2-0.7-3.3-3.3-3.8-5.3c0.9,0,1.9,0.5,2.9,1.4c-0.8-3.6-2.5-6.8-6.5-9.2&#10;&#9;&#9;c-2.3-2.8-3.6-5.4-3.9-8c-0.2-1-0.2-2.1,0-3.1c0.1-0.6,0.2-1.1,0.4-1.7c-0.1,0.2-0.3,0.4-0.4,0.6c-1.6,2.5-2.6,5.3-2.8,8.5&#10;&#9;&#9;c-5.7-4.8-7.2-10.4-4.8-16.8c-3,3.2-4.4,7.1-3.8,11.9c-1.6-2.8-2-5.6-1.3-8.5c-2.4,2.9-2.7,6-2.5,9.4c-1.5-2.1-1.9-4.3-1.5-6.5&#10;&#9;&#9;c-1.6,2.3-1.9,4.9-1.8,7.5c-7.1-2.2-10-6.7-9.2-13.3c-3.1,4.9-1.6,9.5,1.8,14c-5.5-0.2-10-1.4-12.7-4c1.7,3.6,4.3,5.8,7.9,6.8&#10;&#9;&#9;c-5.8,3.9-9.3,11-8.2,17.2c1,5.7,6.1,10.4,12.6,12.1c2.9,0.8,5.4,2,6.2,4.6c1.3,4.1-1.6,5.9-3.4,6.1c-2.3,0.2-3.7-1.9-3.2-3.5&#10;&#9;&#9;c0.5-1.5,1.9-1.6,2.7-1.1c1,0.7,1,1.9-0.2,2.3c-0.7,0.2-1.4-0.5-1.7-1.3c-0.5,1.4,0.2,2.2,1.1,2.7c1.4,0.7,3.8-0.8,4-2.4&#10;&#9;&#9;c0.4-3.3-2.9-6.1-7.7-4.8c-1.9,0.5-3.7,0.7-5.8,0.7c-3.3-2.4-5-5.3-4.3-8.9c-1.8,3-2.2,6.3,0,10c-1.2,0.3-2.7,0.6-3.8,0.1&#10;&#9;&#9;c-5.8-2.8-3.6-12.8,1.6-15.4c-4.4,0.9-6.9,3.6-8.3,7.3c-1.7-9.3,4.9-19.5,14.1-25.8c-16.8,3.5-34.2,18.9-36.6,41.4V410&#10;&#9;&#9;c0.5,4.5,1.5,9.2,3.2,14.1c-3.8-19.4-0.6-35.3,10.7-47.2c-3.3,5.9-5.1,14.4-0.8,25.7c-1.9-9.2-0.4-17.2,3.4-24.2&#10;&#9;&#9;c-1.4,8.4-0.9,16.5,8.5,23.1c-1.5-1.8-3-3.6-3.3-5.9c3.8,3.5,8.3,4.1,13.6,2.1c-1.8,2-3.9,3.3-7.1,4.3c3.3,0.2,7.1-1.3,10.8-3.3&#10;&#9;&#9;c-1,1.8-3.1,3.3-5.6,4.8c1.9-0.3,4.7-0.9,7.4-2.6c4.6,4.6,10,2.6,15.1-2.3c0.5,2.8-0.1,5.5-2,8.1c3.9-3.1,6.4-6.8,6.1-11.4&#10;&#9;&#9;c2.3,2.2,2.1,4.5,0.5,6.6c3.1-2,3.9-4.6,3.3-8c1.8,2.1,2.2,3.7,1.3,5.8c1.2-0.9,2.2-2,2.6-4.1c1.4,3.5,0.9,6.5-2.2,9.2&#10;&#9;&#9;c0.9,0,1.7-0.2,2.7-0.6c-2.7,3.6-7.1,2.6-8.3-0.6c0.3,4.3,3.5,5.8,6.8,7.1c-0.3,0.4-0.7,1-1.3,1.2c-4.7,1.5-8.5-2.3-8.5-5.9&#10;&#9;&#9;c-0.7,1.7-0.8,3.4-0.2,5.3c-4.3-4.5-11.6-8.6-21.6-6.8c-4.5,0.8-11.3,0.1-13.5-2.9c0.2,2.8,1.2,5,2.6,6.8c-5,4.3-9.7,6.4-14.2,6.4&#10;&#9;&#9;c2.6,2.2,5.7,2.4,9,1.8c-0.8,4-3.3,7.2-7.4,9.8c2.4-0.2,4.8-1.2,7-2.7c-0.1,2.2-0.9,4.2-2,6.2c1.3-0.7,2.4-1.8,3.3-3&#10;&#9;&#9;c2.6,6,7.1,9.4,13.2,10.7c1.1,1,1,2.2,0.4,3.4c1.9-0.9,3.1-2.1,3.6-3.7c4.8-0.3,9.2-1.6,13.4-3.3c-0.2,2,0.4,3.6,1.9,4.7&#10;&#9;&#9;c0.1-4.7,3.7-5.6,6-4.5c3.2,1.6,3.9,6.5-0.4,9.1c3.2-0.6,5.8-2.1,7-5.3c1.9,5.7-0.2,11.2-8.2,14.5c-0.9,0.4-3.6,0.3-3.1-0.6&#10;&#9;&#9;c2-3.3,2.5-4.9,2.4-7.4c-1.8,2.7-3.9,4.2-6.1,5.2c1.6-3,2-6.1,1.2-9.1c-3.6,11-14.9,11.3-24,4c6,10.9,18.3,16.3,26,16.1&#10;&#9;&#9;c-2-1.3-3.7-2.9-4.9-4.7c6.2,1.3,11.5,0.9,15.8-1.5c2.9-1.6,5.4-4.1,7.4-7.6c0.3-0.5,0.5-0.9,0.8-1.4c2.9,0.2,5-0.6,6.2-2.3&#10;&#9;&#9;c-3.4,0.1-5.7-1.1-6.3-4c3.5-0.7,4.8-2.4,4.7-4.7c-1.4,2.1-3.5,1.7-5.4,0c-0.1-0.1-0.2-0.3-0.4-0.4c-5.4-5.4-11.9-8-23.2-5&#10;&#9;&#9;c-8.9,2.3-19.3,0.2-20.4-7.9c2.9,2.2,5.3,2.8,7.6,2.6c-4.1-2.8-4.1-6.8-1.3-9.9c1.9-2.1,5.9-3.6,8.5-1c1.9,1.9,0.9,5-0.9,5.8&#10;&#9;&#9;c-2,0.9-4.7-0.1-5.7-3.4c0.1,5.5,3,8.1,7.1,6.9c2.1-0.6,3.8-2.1,5.4-3.7c-0.2,1.6-1.3,3-2.7,4.3c2.9-0.3,4.5-1.6,5.5-3.1&#10;&#9;&#9;c5.8,3.2,11.9,3.5,18.3,0.6c-1.1,2.9-3.4,5.2-6.3,7c3.2-1.1,6.1-2.7,8.5-5.2c0.3-0.3,0.5-0.5,0.8-0.8c-0.2,0.6-0.5,1.2-0.8,1.7&#10;&#9;&#9;c-0.9,1.6-2.2,2.9-3.6,4.3c1.2-0.6,2.4-1.3,3.6-2c4.1-2.6,7.5-5.8,10.6-9.2c-0.2,2.3-1.5,4.6-3.4,6.7c3-1.5,4.6-3.4,5.4-5.6&#10;&#9;&#9;c3.9,1.7,6.1-1.3,5.4-3.7c-0.4,0.9-1.1,1.5-1.7,1.2c-2-0.9-3.1-3.8,1.2-5.6c0.4,0.5,1.1,1,1.7,1.3c1.2,0.5,1.4,1.6,1.7,2.6&#10;&#9;&#9;c1.2-3,0.8-5.6-1.3-7.7c-2.5,0.2-4.5,1.8-6.4,3.7c3.8-7.5,11-7,11.9-2.7C461.9,403.3,460.6,400.5,456.9,400.3z M435.3,366.1&#10;&#9;&#9;c-0.8-0.9-1-1.9-1.2-2.8c0.5,0.7,1.1,1.2,1.8,1.5c0.2,0.1,0.4,0.2,0.5,0.3c1.5,0.9,2.4,2.1,3,3.4c-0.8-0.3-1.5-0.4-2.2-0.4&#10;&#9;&#9;c-0.3,0-0.5,0-0.8,0c-1.1-0.1-2.1-0.5-3-1.1C433.7,366.5,434.5,366.3,435.3,366.1z" style="fill-rule: evenodd; clip-rule: evenodd; fill: rgb(17, 120, 36);" transform="matrix(1, 0, 0, 1, 0, 0)"/></g></g>
</svg>