<svg viewBox="0 0 350 350" xmlns="http://www.w3.org/2000/svg" style="enable-background:new 0 0 1400 980" width="350" height="350">

<path style="fill:#fff;fill-opacity:0;pointer-events:none" d="M0 0h350v350H0z" fill="none"/>

<path class="st0" d="M652 46c27.6 0 50 22.4 50 50s-22.4 50-50 50-50-22.4-50-50 22.4-50 50-50z" style="fill:#e48524;fill-opacity:1;stroke:#e48524;paint-order:fill;stroke-width:0" transform="translate(-558.988 17.593) scale(.94051)"/>

<path class="st0" d="M652 46c27.6 0 50 22.4 50 50s-22.4 50-50 50-50-22.4-50-50 22.4-50 50-50z" style="fill:#4d1f70;fill-opacity:0;stroke:#e48524;paint-order:fill;stroke-width:3" transform="translate(-323.644 14.276) scale(.94051)" fill="none"/>

<path class="st0" d="M652 46c27.6 0 50 22.4 50 50s-22.4 50-50 50-50-22.4-50-50 22.4-50 50-50z" style="fill:#4d1f70;fill-opacity:0;stroke:#e48524;paint-order:fill;stroke-width:3" transform="translate(-444.015 -31.442) scale(.94051)" fill="none"/>

<path class="st0" d="M652 46c27.6 0 50 22.4 50 50s-22.4 50-50 50-50-22.4-50-50 22.4-50 50-50z" style="fill:#4d1f70;fill-opacity:0;stroke:#e48524;paint-order:fill;stroke-width:3" transform="translate(-321.908 145.063) scale(.94051)" fill="none"/>

<path class="st0" d="M652 46c27.6 0 50 22.4 50 50s-22.4 50-50 50-50-22.4-50-50 22.4-50 50-50z" style="fill:#4d1f70;fill-opacity:0;stroke:#e48524;paint-order:fill;stroke-width:3" transform="translate(-438.806 203.512) scale(.94051)" fill="none"/>

<path class="st0" d="M652 46c27.6 0 50 22.4 50 50s-22.4 50-50 50-50-22.4-50-50 22.4-50 50-50z" style="fill:#4d1f70;fill-opacity:0;stroke:#e48524;paint-order:fill;stroke-width:3" transform="translate(-559.177 146.22) scale(.94051)" fill="none"/>

<path class="st0" d="M652 46c27.6 0 50 22.4 50 50s-22.4 50-50 50-50-22.4-50-50 22.4-50 50-50z" style="fill:#4d1f70;fill-opacity:0;stroke:#e48524;paint-order:fill;stroke-width:3" transform="translate(-442.857 86.035) scale(.94051)" fill="none"/>

<path d="m239 626.2 11.6 35.8h37.6l-30.4 22.1 11.6 35.8-30.4-22.1-30.4 22.1 11.6-35.8-30.4-22.1h37.6Z" class="st0" style="fill:#df3325;stroke:#000;stroke-opacity:0" transform="translate(-19.128 -100.368) scale(.30854)"/>

</svg>