<?xml version="1.0" encoding="utf-8"?>
<svg viewBox="0 0 350 350" xmlns="http://www.w3.org/2000/svg" x="0px" y="0px" width="350px" height="350px"><rect x="0" y="0" width="350" height="350" style="fill: white; fill-opacity: 0; pointer-events: none;"/>
<g transform="matrix(3.344677665414783, 0, 0, 3.344677665414783, -2005.0017255014066, -144.89639208196516)"><g id="g-1" transform="matrix(1, 0, 0, 1, 0, 0)">
	<g id="g-2">
		<path class="st0" d="M652,46c27.6,0,50,22.4,50,50s-22.4,50-50,50s-50-22.4-50-50S624.4,46,652,46z" style="fill: rgb(245,166,67);"/>
	</g>
</g></g>


<g transform="matrix(-0.9703185558319091, 0, 0, 0.9703185558319091, 408.26614379882807, -489.6694030761718)"><path d="M 239 626.2000122070312 L 250.60000610351562 662 L 288.20001220703125 662 L 257.79998779296875 684.0999755859375 L 269.3999938964844 719.9000244140625 L 239 697.7999877929688 L 208.60000610351562 719.9000244140625 L 220.1999969482422 684.0999755859375 L 189.8000030517578 662 L 227.39999389648438 662 Z" class="st0" style="fill: rgb(225, 50, 36);" transform="matrix(0.7903703451156616, 0, 0, 0.7903703451156616, -17.969410293827536, 150.52227822106826)"/></g><path d="M 239 626.2000122070312 L 250.60000610351562 662 L 288.20001220703125 662 L 257.79998779296875 684.0999755859375 L 269.3999938964844 719.9000244140625 L 239 697.7999877929688 L 208.60000610351562 719.9000244140625 L 220.1999969482422 684.0999755859375 L 189.8000030517578 662 L 227.39999389648438 662 Z" class="st0" style="fill: rgb(225, 50, 36);" transform="matrix(-0.7669107913970947, 0, 0, 0.7669107913970947, 286.55218505859375, -343.6147766113281)"/>
  
</svg>